<?xml version="1.0" ?><svg viewBox="0 0 40 40" xmlns="http://www.w3.org/2000/svg"><g id="Alibaba"><path d="M34,21.76s-8.71,5-12.44,5-.65-3.93.45-5.2,3.62-4.1,3.54-5.19-1.91-1.94-3.79-2.28l-.45.26.78.73s-8.17,1.68-9,2.41l.36,1-1.34,1.44-.08,0a5.75,5.75,0,0,0,5.47-1.13,2.18,2.18,0,0,0-.43-.48,2.29,2.29,0,0,1,.75.5,2,2,0,0,1,.29.4,1.67,1.67,0,0,1,.14.51l-.53,0a1.09,1.09,0,0,0,0-.36s0,0,0-.05a6.47,6.47,0,0,1-4,1.42h-.35a5.87,5.87,0,0,1-2.05-.48h0v1.83s-2.75,1-2.75,2.44,3.87,1.91,8.65.39c0,0-4,2.14-7.44,2.14S6,24.85,6,24.19s.11-3.7,6-7.89c5.46-3.89,11.42-3.81,13.63-2.61,1.8,1,2,3.15.38,5.37-2.07,2.85-4.45,5-4,5.62C22.91,25.8,31.65,22.9,34,21.76Z"/></g></svg>